<svg width="91" height="120" viewBox="0 0 91 120" fill="none" xmlns="http://www.w3.org/2000/svg">
<path d="M87.6935 3.1723C69.5484 11.1557 39.411 56.814 55.3597 68.7944C59.1809 71.6648 66.2768 69.8874 70.0492 67.2503C76.017 63.0785 76.6344 57.4596 73.7232 51.8564C68.4349 41.6775 52.5468 33.3501 39.34 39.1397C18.6723 48.2001 11.182 68.6977 12.1048 86.979C12.2887 90.6204 18.0494 128.354 20.0455 112.998C20.4078 110.211 22.0255 90.5643 21.461 93.3356C20.525 97.9306 20.6043 103.805 20.0696 111.572C20.2301 112.495 19.8591 117.315 17.162 116.057C11.6395 113.483 8.85026 104.777 3.395 102.086" stroke="#6A6C87" stroke-width="4" stroke-linecap="round"/>
</svg>
