<svg width="24" height="24" viewBox="0 0 24 24" fill="none" xmlns="http://www.w3.org/2000/svg">
<rect width="24" height="24" rx="12" fill="#555775"/>
<path fill-rule="evenodd" clip-rule="evenodd" d="M5.43208 11.8734C8.93032 10.3492 11.263 9.34443 12.4302 8.85896C15.7627 7.47285 16.4552 7.23207 16.9066 7.22411C17.0058 7.22237 17.2278 7.24697 17.3716 7.36363C17.493 7.46214 17.5264 7.59521 17.5423 7.6886C17.5583 7.782 17.5782 7.99476 17.5624 8.161C17.3818 10.0585 16.6004 14.6632 16.2029 16.7884C16.0346 17.6876 15.7034 17.9892 15.3828 18.0187C14.6859 18.0828 14.1567 17.5581 13.4818 17.1157C12.4256 16.4234 11.829 15.9924 10.8038 15.3168C9.61902 14.5361 10.3871 14.107 11.0623 13.4057C11.239 13.2221 14.3094 10.4294 14.3688 10.176C14.3762 10.1443 14.3831 10.0262 14.313 9.96388C14.2428 9.90151 14.1392 9.92284 14.0645 9.9398C13.9586 9.96384 12.2713 11.079 9.00283 13.2854C8.52391 13.6142 8.09013 13.7745 7.70147 13.7661C7.27301 13.7568 6.44882 13.5238 5.83612 13.3246C5.08462 13.0804 4.48734 12.9512 4.53935 12.5363C4.56644 12.3202 4.86402 12.0993 5.43208 11.8734Z" fill="white"/>
</svg>
