<svg width="24" height="24" viewBox="0 0 24 24" fill="none" xmlns="http://www.w3.org/2000/svg">
<g clip-path="url(#clip0_13_287)">
<path d="M6.10352e-05 24L1.69633 17.8403C0.647625 16.0323 0.0974822 13.9848 0.103213 11.8916C0.103213 5.3327 5.46711 0 12.0516 0C15.2493 0 18.2522 1.23764 20.5043 3.48479C22.7622 5.73194 24.0058 8.72053 24 11.8973C24 18.4563 18.6361 23.789 12.0459 23.789H12.0402C10.0402 23.789 8.07455 23.2871 6.3267 22.3403L6.10352e-05 24ZM6.63043 20.1901L6.99146 20.4068C8.51581 21.308 10.2637 21.7814 12.0459 21.7871H12.0516C17.5244 21.7871 21.9829 17.3555 21.9829 11.903C21.9829 9.26236 20.9513 6.78137 19.0774 4.91065C17.2035 3.03992 14.7049 2.01331 12.0516 2.01331C6.57885 2.0076 2.1204 6.43916 2.1204 11.8916C2.1204 13.7567 2.64189 15.576 3.63903 17.1502L3.87398 17.5266L2.87112 21.1711L6.63043 20.1901Z" fill="white"/>
<path d="M0.418335 23.5837L2.0573 17.635C1.04298 15.8954 0.510025 13.9163 0.510025 11.8973C0.515756 5.56654 5.69054 0.416344 12.0516 0.416344C15.1404 0.416344 18.0344 1.61406 20.212 3.78136C22.3897 5.94866 23.5874 8.8346 23.5874 11.903C23.5874 18.2338 18.4069 23.384 12.0516 23.384H12.0458C10.1146 23.384 8.21776 22.8992 6.53294 21.9867L0.418335 23.5837Z" fill="url(#paint0_linear_13_287)"/>
<path d="M6.10352e-05 24L1.69633 17.8403C0.647625 16.0323 0.0974822 13.9848 0.103213 11.8916C0.103213 5.3327 5.46711 0 12.0516 0C15.2493 0 18.2522 1.23764 20.5043 3.48479C22.7622 5.73194 24.0058 8.72053 24 11.8973C24 18.4563 18.6361 23.789 12.0459 23.789H12.0402C10.0402 23.789 8.07455 23.2871 6.3267 22.3403L6.10352e-05 24ZM6.63043 20.1901L6.99146 20.4068C8.51581 21.308 10.2637 21.7814 12.0459 21.7871H12.0516C17.5244 21.7871 21.9829 17.3555 21.9829 11.903C21.9829 9.26236 20.9513 6.78137 19.0774 4.91065C17.2035 3.03992 14.7049 2.01331 12.0516 2.01331C6.57885 2.0076 2.1204 6.43916 2.1204 11.8916C2.1204 13.7567 2.64189 15.576 3.63903 17.1502L3.87398 17.5266L2.87112 21.1711L6.63043 20.1901Z" fill="url(#paint1_linear_13_287)"/>
<path fill-rule="evenodd" clip-rule="evenodd" d="M9.06588 6.91825C8.84238 6.42206 8.60743 6.41065 8.39539 6.40495C8.22347 6.39924 8.0229 6.39924 7.82233 6.39924C7.62176 6.39924 7.30084 6.47339 7.02577 6.76996C6.7507 7.06654 5.98279 7.78517 5.98279 9.25095C5.98279 10.711 7.05442 12.1255 7.20342 12.3251C7.35241 12.5247 9.27218 15.6217 12.3037 16.8137C14.8252 17.8061 15.3409 17.6065 15.8854 17.5551C16.4298 17.5038 17.6504 16.8365 17.9025 16.1407C18.149 15.4449 18.149 14.8517 18.0745 14.7262C18 14.6008 17.7994 14.5266 17.5014 14.3783C17.2034 14.23 15.7364 13.5114 15.4613 13.4088C15.1862 13.3118 14.9856 13.2605 14.7908 13.557C14.5902 13.8536 14.0172 14.5209 13.8452 14.7205C13.6733 14.9202 13.4957 14.943 13.1977 14.7947C12.8997 14.6464 11.9369 14.3327 10.7965 13.3175C9.90829 12.5304 9.30657 11.5551 9.13465 11.2586C8.96273 10.962 9.11746 10.8023 9.26645 10.654C9.39826 10.5228 9.56445 10.3061 9.71344 10.135C9.86244 9.96388 9.91402 9.83841 10.0114 9.63879C10.1089 9.43917 10.063 9.26806 9.98852 9.11978C9.91402 8.97719 9.32949 7.50571 9.06588 6.91825Z" fill="white"/>
</g>
<defs>
<linearGradient id="paint0_linear_13_287" x1="12.0023" y1="23.5825" x2="12.0023" y2="0.415533" gradientUnits="userSpaceOnUse">
<stop stop-color="#20B038"/>
<stop offset="1" stop-color="#60D66A"/>
</linearGradient>
<linearGradient id="paint1_linear_13_287" x1="12.0024" y1="23.9977" x2="12.0024" y2="0" gradientUnits="userSpaceOnUse">
<stop stop-color="#F9F9F9"/>
<stop offset="1" stop-color="white"/>
</linearGradient>
<clipPath id="clip0_13_287">
<rect width="24" height="24" fill="white"/>
</clipPath>
</defs>
</svg>
